<svg width="16" height="17" viewBox="0 0 16 17" fill="none" xmlns="http://www.w3.org/2000/svg">
<path d="M1 13.6637V2.99706C1 2.1175 1 1.67722 1.18509 1.41698C1.34664 1.18985 1.59564 1.04072 1.87207 1.00507C2.18868 0.964232 2.57701 1.17133 3.35254 1.58495L13.3525 6.91829L13.3562 6.9199C14.2132 7.37699 14.642 7.60565 14.7826 7.91041C14.9053 8.17627 14.9053 8.48316 14.7826 8.74901C14.6418 9.0542 14.212 9.28379 13.3525 9.74218L3.35254 15.0755C2.57645 15.4894 2.1888 15.6957 1.87207 15.6549C1.59564 15.6192 1.34664 15.4701 1.18509 15.243C1 14.9828 1 14.5433 1 13.6637Z" stroke="white" stroke-width="2" stroke-linecap="round" stroke-linejoin="round"/>
</svg>
