<svg width="17" height="17" viewBox="0 0 17 17" fill="none" xmlns="http://www.w3.org/2000/svg">
<path d="M10.9998 2H12.7998C13.9199 2 14.4804 2 14.9082 2.21799C15.2845 2.40973 15.5903 2.71547 15.782 3.0918C16 3.51962 16 4.08009 16 5.2002V12.8002C16 13.9203 16 14.4801 15.782 14.9079C15.5903 15.2842 15.2845 15.5905 14.9082 15.7822C14.4808 16 13.921 16 12.8031 16H5.19691C4.079 16 3.52001 16 3.09261 15.7822C2.71628 15.5905 2.40952 15.2839 2.21777 14.9076C2 14.4802 2 13.921 2 12.8031V11M6 1H1V6M1 1L8 8" stroke="white" stroke-width="2" stroke-linecap="round" stroke-linejoin="round"/>
</svg>
