<svg width="22" height="17" viewBox="0 0 22 17" fill="none" xmlns="http://www.w3.org/2000/svg">
<path d="M15.1716 5.34305L20.8284 10.9999M15.1716 10.9999L20.8284 5.34305M6.4803 11.5783L8.15553 13.6514C9.02883 14.7321 9.46547 15.2725 9.84803 15.3313C10.1792 15.3822 10.5138 15.2639 10.7394 15.0162C11 14.73 11 14.0353 11 12.6458V3.69714C11 2.30769 11 1.61297 10.7394 1.32677C10.5138 1.07903 10.1792 0.96071 9.84803 1.01163C9.46547 1.07045 9.02883 1.6108 8.15553 2.6915L6.4803 4.76461C6.30388 4.98293 6.21567 5.09209 6.10652 5.17064C6.00982 5.24023 5.90147 5.29198 5.78656 5.32345C5.65687 5.35898 5.51652 5.35897 5.23583 5.35897H3.8125C3.0563 5.35897 2.6782 5.35897 2.37264 5.45992C1.77131 5.65857 1.2996 6.13028 1.10094 6.73161C1 7.03717 1 7.41527 1 8.17147C1 8.92768 1 9.30578 1.10094 9.61134C1.2996 10.2127 1.77131 10.6844 2.37264 10.883C2.6782 10.984 3.0563 10.984 3.8125 10.984H5.23583C5.51652 10.984 5.65687 10.984 5.78656 11.0195C5.90147 11.051 6.00982 11.1027 6.10652 11.1723C6.21567 11.2509 6.30388 11.36 6.4803 11.5783Z" stroke="white" stroke-width="2" stroke-linecap="round" stroke-linejoin="round"/>
</svg>
