<svg width="17" height="20" viewBox="0 0 17 20" fill="none" xmlns="http://www.w3.org/2000/svg">
<path d="M6.41724 14H1.41724V19M10.4172 6H15.4172V1M1.00024 7.0034C1.56093 5.61566 2.49968 4.41304 3.70979 3.53223C4.9199 2.65141 6.35409 2.12752 7.84699 2.02051C9.33989 1.9135 10.832 2.2274 12.1553 2.92661C13.4787 3.62582 14.5785 4.68254 15.3313 5.97612M15.8348 12.9971C15.2741 14.3848 14.3354 15.5874 13.1252 16.4682C11.9151 17.3491 10.4824 17.8723 8.9895 17.9793C7.4966 18.0863 6.0033 17.7725 4.67993 17.0732C3.35656 16.374 2.25606 15.3175 1.50317 14.0239" stroke="white" stroke-width="2" stroke-linecap="round" stroke-linejoin="round"/>
</svg>
